<svg xmlns="http://www.w3.org/2000/svg" viewBox="0 0 32 32"><path fill-rule="evenodd" clip-rule="evenodd" d="M.41 21.92l6.3-8.3 1.72.9L12.53 8l2.55 2.98.95-.76 3.68 4.57 2.61-3.05 7.3 10.18-7.03-8.66-1.07 3.64.98 2.88-6.3-8.49-.06 2.9 3.57 7.73-6.68-11.98 1.93 6.48-2.7-6.3-1.48 4.18.3-2.73-3.72 9.87.45-4.16-1.55-1.66-5.85 6.3z" fill="#011C40"/><path fill-rule="evenodd" clip-rule="evenodd" d="M31.74 23.22C21.78 15.35 6.27 26.18 0 22c6.89 5.92 23-4.08 31.74 1.22z" fill="#011C40"/><path fill-rule="evenodd" clip-rule="evenodd" d="M32 23.84c-7.82-4.87-19.45 1.91-25.4.34 6.45 3.07 18.47-3.73 25.4-.34z" fill="#011C40"/></svg>
