<svg xmlns="http://www.w3.org/2000/svg" viewBox="0 0 32 32"><path d="M19.73 8.53c.7 0 1.28.45 1.5 1.07h5.53a1.6 1.6 0 1 1 0 1.07h-5.53a1.6 1.6 0 1 1-1.5-2.14zm8.54 2.14a.53.53 0 1 0 0-1.07.53.53 0 0 0 0 1.07zm-8.54 0a.53.53 0 1 0 0-1.07.53.53 0 0 0 0 1.07z" fill="#00B2FF"/><path d="M15.47 11.83v-3.3c0-.14.05-.27.15-.37l2.14-2.14c.1-.1.23-.15.37-.15h1.7a1.6 1.6 0 1 1 0 1.06h-1.48l-1.82 1.82v3.08a1.6 1.6 0 1 1-1.06 0zm5.86-4.9a.53.53 0 1 0 0-1.06.53.53 0 0 0 0 1.06zM16 13.87a.53.53 0 1 0 0-1.07.53.53 0 0 0 0 1.07zM5.87 13.87c.24 0 .47.06.68.16l.92-.92V8c0-.14.05-.28.15-.38l5.34-5.33a1.6 1.6 0 1 1 1.44.91c-.25 0-.48-.06-.69-.16L8.53 8.22v5.11c0 .14-.05.28-.15.38L7.3 14.78a1.6 1.6 0 1 1-1.44-.91zM14.4 2.13a.53.53 0 1 0 0-1.06.53.53 0 0 0 0 1.06zM5.87 16a.53.53 0 1 0 0-1.07.53.53 0 0 0 0 1.07zM1.07 7.56V5.33c0-.14.05-.27.15-.37l3.74-3.74c.1-.1.23-.15.37-.15H8.1a1.6 1.6 0 1 1 0 1.06H5.55L2.13 5.55v2.01a1.6 1.6 0 1 1-1.06 0zM9.6 2.13a.53.53 0 1 0 0-1.06.53.53 0 0 0 0 1.06zm-8 7.47a.53.53 0 1 0 0-1.07.53.53 0 0 0 0 1.07zM8.53 28.9v-7.67a1.6 1.6 0 1 1 2.04-2.03h5.53a1.6 1.6 0 0 1 1.5-1.07c.7 0 1.28.45 1.5 1.07h3.08l1.98-1.98a1.6 1.6 0 1 1 1.44.91c-.25 0-.48-.06-.69-.16l-2.13 2.14c-.1.1-.24.16-.38.16h-3.3a1.6 1.6 0 0 1-1.5 1.06 1.6 1.6 0 0 1-1.5-1.06h-5.53c-.16.45-.52.8-.97.96v7.67a1.6 1.6 0 1 1-1.07 0zM25.6 17.07a.53.53 0 1 0 0-1.07.53.53 0 0 0 0 1.07zm-8 3.2a.53.53 0 1 0 0-1.07.53.53 0 0 0 0 1.07zM9.07 30.93a.53.53 0 1 0 0-1.06.53.53 0 0 0 0 1.06zm0-10.66a.53.53 0 1 0 0-1.07.53.53 0 0 0 0 1.07z" fill="#00B2FF"/><path d="M11.2 10.76v-1.7c0-.14.06-.27.16-.37l6.4-6.4A1.6 1.6 0 0 1 19.2 0c.7 0 1.28.45 1.5 1.07h2.23c.3 0 .54.24.54.53v1.38l1.98 1.98c.2-.1.44-.16.68-.16a1.6 1.6 0 1 1-1.6 1.6c0-.25.06-.48.16-.69l-2.13-2.13a.53.53 0 0 1-.16-.38V2.13h-1.7a1.6 1.6 0 0 1-2.19.9L12.27 9.3v1.47a1.6 1.6 0 1 1-1.07 0zm14.93-3.83a.53.53 0 1 0 0-1.06.53.53 0 0 0 0 1.06zm-6.93-4.8a.53.53 0 1 0 0-1.06.53.53 0 0 0 0 1.06zM11.73 12.8a.53.53 0 1 0 0-1.07.53.53 0 0 0 0 1.07z" fill="#00B2FF"/><path d="M12.8 14.93c.7 0 1.28.45 1.5 1.07h6.28l3.04-3.04c.1-.1.24-.16.38-.16h5.65l1.28-1.29V7.15l-4.11-4.11a1.6 1.6 0 1 1 .91-1.44c0 .25-.06.48-.16.69l4.27 4.27c.1.1.16.23.16.37v4.8c0 .14-.06.28-.16.38l-1.6 1.6c-.1.1-.23.16-.37.16h-5.65l-3.04 3.04c-.1.1-.24.16-.38.16h-6.5a1.6 1.6 0 1 1-1.5-2.14zM26.13 1.07a.53.53 0 1 0 0 1.06.53.53 0 0 0 0-1.06zm-13.33 16a.53.53 0 1 0 0-1.07.53.53 0 0 0 0 1.07zM1.6 12.8c.25 0 .48.06.69.16l1.98-1.98V7.9a1.6 1.6 0 1 1 1.06 0v3.3c0 .14-.05.28-.15.38L3.04 13.7a1.57 1.57 0 0 1-.9 2.2v.4l4.1 4.11c.1.1.16.24.16.38v.63c.62.22 1.07.8 1.07 1.5s-.45 1.28-1.07 1.5v1.27a1.6 1.6 0 1 1-1.07 0v-1.27a1.6 1.6 0 0 1-1.06-1.5c0-.7.44-1.28 1.06-1.5v-.41l-4.1-4.11a.53.53 0 0 1-.16-.38v-.63a1.6 1.6 0 0 1 .53-3.1zm3.2-5.87a.53.53 0 1 0 0-1.06.53.53 0 0 0 0 1.06zm1.07 20.8a.53.53 0 1 0 0-1.06.53.53 0 0 0 0 1.06zm0-4.26a.53.53 0 1 0 0-1.07.53.53 0 0 0 0 1.07zM1.6 14.93a.53.53 0 1 0 0-1.06.53.53 0 0 0 0 1.06z" fill="#00B2FF"/></svg>
