<?xml version="1.0" encoding="utf-8"?>

<svg xmlns="http://www.w3.org/2000/svg">

  <style>
    :root > svg {
      display:none;
    }
    :root > svg:target {
      display:block;
    }
  </style>

  <svg id="logo" viewBox="0 0 70 70">
  <path fill-rule="evenodd" clip-rule="evenodd" d="M.9 47.13l13.77-18.59 3.77 2.02L27.4 16 33 22.66l2.08-1.7 8.05 10.22 5.72-6.82L64.8 47.13 49.42 27.77l-2.34 8.13 2.15 6.42-13.77-18.96-.15 6.47 7.81 17.3-14.61-26.8 4.22 14.48-5.91-14.09-3.25 9.37.65-6.12-8.12 22.07.98-9.29-3.38-3.72L.9 47.13z"/>
  <path fill-rule="evenodd" clip-rule="evenodd" d="M69.44 50.03C47.64 32.43 13.71 56.63 0 47.3c15.07 13.22 50.3-9.14 69.44 2.73z"/>
  <path fill-rule="evenodd" clip-rule="evenodd" d="M70 51.42c-17.1-10.9-42.54 4.26-55.58.75 14.13 6.86 40.43-8.33 55.58-.75z"/>
  </svg>

</svg>
